PathFileType	4	(X/Y/Z)	Patient4_TMGait_0pt6_02_right_15.trc.trc
DataRate	CameraRate	NumFrames	NumMarkers	Units	OrigDataRate	OrigDataStartFrame	OrigNumFrames
80.924855491329	80.924855491329	4	33	mm	80.924855491329	89	       141
Frame#	Time	Sacral			L.Shoulder			Chest			R.Shoulder			Neck			R.ASIS			L.ASIS			R.Thigh.Superior			R.Thigh.Lateral			R.Thigh.Inferior			R.Patella			L.Thigh.Superior			L.Thigh.Lateral			L.Thigh.Inferior			L.Patella			L.Shank.Superior			L.Shank.Lateral			L.Shank.Inferior			R.Shank.Superior			R.Shank.Lateral			R.Shank.Inferior			R.Heel			R.Midfoot.Superior			R.Midfoot.Lateral			R.Toe			L.Heel			L.Midfoot.Lateral			L.Midfoot.Superior			L.Toe			L.Elbow			L.Wrist			R.Elbow			R.Wrist			
		X1	Y1	Z1	X2	Y2	Z2	X3	Y3	Z3	X4	Y4	Z4	X5	Y5	Z5	X6	Y6	Z6	X7	Y7	Z7	X8	Y8	Z8	X9	Y9	Z9	X10	Y10	Z10	X11	Y11	Z11	X12	Y12	Z12	X13	Y13	Z13	X14	Y14	Z14	X15	Y15	Z15	X16	Y16	Z16	X17	Y17	Z17	X18	Y18	Z18	X19	Y19	Z19	X20	Y20	Z20	X21	Y21	Z21	X22	Y22	Z22	X23	Y23	Z23	X24	Y24	Z24	X25	Y25	Z25	X26	Y26	Z26	X27	Y27	Z27	X28	Y28	Z28	X29	Y29	Z29	X30	Y30	Z30	X31	Y31	Z31	X32	Y32	Z32	X33	Y33	Z33	

89	18.917428571429	788.392694930431	1009.455489846434	468.317561951327	944.822982325067	1437.536026202284	277.969108552398	1063.193229021118	1364.997548662492	425.799017821041	998.590549564924	1439.449975063296	606.488402054596	956.441946153352	1495.953339538836	429.241386377521	1019.502242208333	939.560934456802	565.627237940537	987.987342199737	961.522022786961	293.825207480884	1053.950383322580	734.000945087312	546.673400028679	974.071918258306	627.547225575090	614.896898416482	1050.717001766049	565.991579458007	538.532211080342	1039.181863471658	457.136726499996	559.786166012433	1052.763071822268	760.171378489298	325.802579550599	972.175096145566	636.794631583343	272.784740602432	1065.667276672032	566.932217841230	333.600469369024	1072.638657706653	496.919355250599	344.131058516248	1049.108366815609	423.430682581841	338.445432446595	964.442493754829	303.609762794352	293.553502696960	1024.287120621405	196.598314697606	363.659981054327	960.010843130894	392.122905386076	567.668828191044	839.544631214704	354.800724293566	629.816593305463	821.720730685919	246.525570955054	580.439369665639	618.301082801890	187.022124255998	554.946854429557	784.491212631849	124.558643544706	593.390887874332	676.018211695901	125.549439366400	626.614956936951	847.379695609432	30.107718342178	616.413799750667	904.927747231363	38.214338392035	411.257347396541	976.246717153729	36.044595562835	328.216213792912	1059.754237265317	97.202900981832	352.368985857191	1187.699594925962	45.456320475259	320.134305130974	854.996460672504	1091.167785876474	173.535421444502	894.908415888093	833.031229828954	179.180688472107	1048.759459990462	1093.545894833640	717.916684251196	1292.724090893115	1065.750131013914	656.969543180628	
90	18.929785714286	787.705996733119	1009.626381447932	465.716686020069	946.660707048325	1437.692075552009	275.916109151751	1063.788892117163	1364.878299504533	424.631645111495	997.911847536974	1439.232835690940	604.919509913637	957.239138097561	1496.084381960322	427.330074822955	1018.524771493422	939.788640909317	563.872845738372	987.984530312361	961.514199359817	292.016767910235	1058.651697183002	736.706219277982	544.405635808725	982.626978611791	628.444499153385	613.057598569651	1060.739898255305	568.611111889661	536.181704059302	1051.170827167174	458.573341223974	557.700248449710	1051.382109682738	759.229187236956	323.825218254443	969.626681825571	636.640315385812	271.185494953795	1062.131208658133	566.071028269943	332.397791806829	1068.334249428281	496.084336119559	343.168194044541	1044.402410603211	422.703757146472	337.543964993266	959.074006271521	303.339803707410	292.702819091937	1017.902380646931	196.153650322723	363.355905455177	970.471127224159	394.082899852803	565.923094767377	848.964644520198	360.466762874304	628.382880738321	828.235266680424	252.498996873178	579.807987909230	624.164377719905	202.243632528691	554.486488642890	786.512234125403	129.808534113734	593.203261719781	678.079829392083	137.441164551314	626.336839393647	842.756935389977	29.214536194184	616.553865343568	897.473147067218	38.179185597088	411.185770274719	968.783811049262	35.965737352651	328.125934696994	1052.393316427919	97.023404540390	352.361571550146	1180.325597846502	45.054798613108	320.106752356885	861.467673991793	1090.716434741318	168.591466912752	912.271902445922	834.244682485034	173.756492120953	1038.861202172750	1091.335899420776	715.300646187988	1281.963877860148	1045.033320799676	659.002018448400	
91	18.942142857143	786.903903574821	1009.714933464615	463.177503301327	948.408734941152	1437.720711064289	274.003860090591	1064.296632630936	1364.639126597559	423.602137935392	997.144010492437	1438.885334166685	603.487218416685	958.019155091280	1496.119803528727	425.553680437270	1017.393829267507	939.965031689455	562.304915469221	987.936890134934	961.448904259493	290.359877299551	1063.112770495127	739.713153636886	541.949693820131	991.201786890567	629.721596640131	611.150539463649	1070.630339755947	571.766539850174	533.635235044565	1063.341395815199	460.608298769567	555.341237699552	1050.058639686310	758.341365296077	322.101480808637	967.240134169902	636.484427002557	269.684885103956	1058.757124375061	565.231253288326	331.307069503946	1064.206202931098	495.245211922915	342.306293248742	1039.847867596378	421.961733521974	336.726770715756	953.838153441369	303.089858653487	291.878000055292	1011.580261436752	195.692255026237	363.065412268288	981.298512043345	396.463890988483	563.955470540379	858.956700822764	366.212937782668	626.764994785093	835.578980868997	258.598284748226	578.917490138970	631.312508634455	216.822652262210	553.726266638783	789.778725805831	135.470669617522	592.814201655039	681.599878402331	149.154925581866	625.804194856457	839.680550434040	28.798880089817	616.584572492995	890.025052709317	38.151477706523	411.095210405935	961.332004125723	35.899750613467	328.022081478527	1045.039348627602	96.858837535926	352.348233441810	1172.958157403857	44.672694788029	320.073860743861	868.323041955498	1090.199352703388	163.631101990155	930.172004004511	835.930640179606	168.416119641149	1029.033560874618	1089.300439907858	712.810443408969	1269.696189700873	1024.051175193749	661.178272338033	
92	18.954500000000	786.004016394968	1009.788100730990	460.687870656189	950.070510584807	1437.686191954203	272.239354410142	1064.729090323762	1364.336501425020	422.698595257446	996.326907183198	1438.469979621834	602.184953209645	958.798098409237	1496.109507546490	423.915950644008	1016.130261174155	940.159595563828	560.927241806058	987.873560359374	961.374427631075	288.865565910556	1067.261719362292	743.053632330581	539.337990660944	999.670918962932	631.441301413468	609.201876106805	1080.278406312366	575.500527221613	530.963121709298	1075.580018396490	463.299734222330	552.816232412333	1048.779946789504	757.498850169115	320.597238504854	964.931956896888	636.331132777165	268.311849651973	1055.477367550525	564.400562452315	330.327340892531	1060.185739664700	494.405391488801	341.565139993435	1035.381612768328	421.220396251729	336.010508634094	948.680242257090	302.868652945218	291.103094980399	1005.291853551729	195.228533297230	362.798766317298	992.409778187803	399.295245012094	561.854161073430	869.403189523052	371.957651669978	624.982391809341	843.758988200866	264.679200300205	577.789349825426	639.629591560715	230.227231115545	552.665844733631	794.470645805006	141.347164816651	592.201034041915	686.666866656432	160.219807669356	624.990358963475	838.653124831751	29.024818577446	616.425919460505	882.581300760581	38.132876949455	410.990789794790	953.889132861410	35.847741667273	327.909575751652	1037.687448796347	96.712670033690	352.328594664225	1165.592383446660	44.317833303105	320.033988054994	875.551792752486	1089.689758450051	158.718777888638	948.516051692783	838.188064684522	163.208019051219	1019.353383717542	1087.505809733037	710.500022052955	1255.815133841029	1003.027901752069	663.487638245097	
